{"title":"Uomini di Parola - Stand Up Guys (2012) [XviD - Italian English ","uid":10876148,"size":1239645913,"categoryP":"video","categoryS":"movies","magnet":"?xt=urn:btih:1e44e8c8cf69cb6720c8dd41ee1c265c090f9c2b&amp;dn=Uomini+di+Parola+-+Stand+Up+Guys+%282012%29+%5BXviD+-+Italian+English+&amp;tr=udp%3A%2F%2Ftracker.openbittorrent.com%3A80&amp;tr=udp%3A%2F%2Fopen.demonii.com%3A1337&amp;tr=udp%3A%2F%2Ftracker.coppersurfer.tk%3A6969&amp;tr=udp%3A%2F%2Fexodus.desync.com%3A6969","seeders":4,"leechers":3,"uploader":"robbyrs4","files":3,"time":1408992916,"description":"Uomini di Parola - Stand Up Guys (2012) [XviD - Italian English Ac3 5.1 - Sub ita eng] MIRCrew\n\n\n\n\n\n[center][color=red][b][img]http://s19.postimg.org/mqmhlwtlf/Mircrew_original_red_skull.png[/img]\n\n[u]NO FOUND ONLY ORIGINAL RELEASE[/u]\n\n\nUomini di Parola - Stand Up Guys (2012)\n\n[img]http://s19.postimg.org/vk30hid03/uomini.jpg[/img]\n\n[URL=http://www.imdb.com/title/tt1389096/][IMG]http://www.userlogos.org/files/logos/Sucka/imdb_new.png[/IMG][/URL]  \n\n[img]http://imageshack.us/a/img534/6946/zcu.gif[/img]\n\n\nTitolo originale \tStand Up Guys\nLingua originale \tInglese\nPaese di produzione \tUSA\nAnno \t2012\nDurata \t94 min\nColore \tcolore\nAudio \tsonoro\nGenere \tcommedia\nRegia \tFisher Stevens\nSceneggiatura \tNoah Haidle\nProduttore \tSideny Kimmel, Tom Rosenberg, Gary Lucchesi, Jim Tauber\nDistribuzione (Italia) \tKoch Media\n\n[img]http://imageshack.us/a/img4/8946/u96.gif[/img]\n\n\n\n    Al Pacino: Valentine &quot;Val&quot;\n    Christopher Walken: Doc\n    Alan Arkin: Hirsch\n    Julianna Margulies: Nina Hirsch\n    Mark Margolis: Claphands\n    Addison Timlin: Alex\n    Lucy Punch: Wendy\n    Vanessa Ferlito: Sylvia\n    Katheryn Winnick: Oxana\n    Rick Gomez: prete\n\nDoppiatori italiani\n\n    Giancarlo Giannini: Val\n    Luca Biagini: Doc\n    Stefano De Sando: Hirsch\n    Francesca Manicone: Nina Hirsch\n    Paolo Buglioni: Claphands\n    Domitilla D'Amico: Alex\n    Ilaria Latini: Sylvia\n    Chiara Colizzi: Wendy\n    Laura Lenghi: Oxana\n    Marco Mete: prete\n\n\n\n\n\n\n[img]http://imageshack.us/a/img844/6546/cupz.gif[/img]\n\nDopo 28 anni di prigione Val reincontra il suo vecchio socio di affari Doc. Passano una notte di baldoria in cui si riuniscono con un altro vecchio amico Hirsch, che ai tempi delle loro scorribande era solito fare l'autista. .....\n\n[img]http://imageshack.us/a/img202/6180/4e6.gif[/img]\n\nA pair of aging stickup men try to get the old gang back together for one last hurrah before one of the guys takes his last assignment - to kill his comrade.........\n &lt;a href=&quot;\nhttp://s19.postimg.org/h4powcpcj/vlcsnap_2014_08_25_18h21m56s118.png&quot; rel=&quot;nofollow&quot; target=&quot;_NEW&quot;&gt;\nhttp://s19.postimg.org/h4powcpcj/vlcsnap_2014_08_25_18h21m56s118.png&lt;/a&gt;\n &lt;a href=&quot;\nhttp://s19.postimg.org/rdi626deb/vlcsnap_2014_08_25_18h22m10s252.png&quot; rel=&quot;nofollow&quot; target=&quot;_NEW&quot;&gt;\nhttp://s19.postimg.org/rdi626deb/vlcsnap_2014_08_25_18h22m10s252.png&lt;/a&gt;\n &lt;a href=&quot;\nhttp://s19.postimg.org/6fc043djn/vlcsnap_2014_08_25_18h22m44s88.png&quot; rel=&quot;nofollow&quot; target=&quot;_NEW&quot;&gt;\nhttp://s19.postimg.org/6fc043djn/vlcsnap_2014_08_25_18h22m44s88.png&lt;/a&gt;\n\n\n[img]http://imageshack.us/a/img571/2166/an4p.gif[/img]\n\n\n\n[spoiler]\nGeneral\nComplete name                            : Uomini di Parola - Stand Up Guys (2012) .ita.eng.sub.ita.eng.MIRCrewUomini di Parola - Stand Up Guys (2012) .ita.eng.sub.ita.eng.MIRCrew.avi\nFormat                                   : AVI\nFormat/Info                              : Audio Video Interleave\nFile size                                : 1.15 GiB\nDuration                                 : 1h 35mn\nOverall bit rate                         : 1 730 Kbps\n\nVideo\nID                                       : 0\nFormat                                   : MPEG-4 Visual\nFormat profile                           : Advanced Simple@L4\nFormat settings, BVOP                    : 2\nFormat settings, QPel                    : No\nFormat settings, GMC                     : No warppoints\nFormat settings, Matrix                  : Default (H.263)\nCodec ID                                 : DIVX\nCodec ID/Info                            : Project Mayo\nCodec ID/Hint                            : DivX 4\nDuration                                 : 1h 35mn\nBit rate                                 : 881 Kbps\nWidth                                    : 688 pixels\nHeight                                   : 286 pixels\nDisplay aspect ratio                     : 2.40:1\nFrame rate                               : 24.000 fps\nColor space                              : YUV\nChroma subsampling                       : 4:2:0\nBit depth                                : 8 bits\nScan type                                : Progressive\nCompression mode                         : Lossy\nBits/(Pixel*Frame)                       : 0.187\nStream size                              : 602 MiB (51%)\nWriting library                          : XviD 64\n\nAudio #1\nID                                       : 1\nFormat                                   : AC-3\nFormat/Info                              : Audio Coding 3\nMode extension                           : CM (complete main)\nCodec ID                                 : 2000\nDuration                                 : 1h 35mn\nSource duration                          : 1h 35mn\nBit rate mode                            : Constant\nBit rate                                 : 384 Kbps\nChannel(s)                               : 6 channels\nChannel positions                        : Front: L C R, Side: L R, LFE\nSampling rate                            : 48.0 KHz\nBit depth                                : 16 bits\nCompression mode                         : Lossy\nStream size                              : 262 MiB (22%)\nAlignment                                : Aligned on interleaves\nInterleave, duration                     : 32 ms (0.77 video frame)\n\nAudio #2\nID                                       : 2\nFormat                                   : AC-3\nFormat/Info                              : Audio Coding 3\nMode extension                           : CM (complete main)\nCodec ID                                 : 2000\nDuration                                 : 1h 35mn\nSource duration                          : 1h 35mn\nBit rate mode                            : Constant\nBit rate                                 : 448 Kbps\nChannel(s)                               : 6 channels\nChannel positions                        : Front: L C R, Side: L R, LFE\nSampling rate                            : 48.0 KHz\nBit depth                                : 16 bits\nCompression mode                         : Lossy\nStream size                              : 306 MiB (26%)\nAlignment                                : Aligned on interleaves\nInterleave, duration                     : 32 ms (0.77 video frame)\n[/spoiler]\n\n[/color][/b][/center]","torrent":{"xt":"urn:btih:1e44e8c8cf69cb6720c8dd41ee1c265c090f9c2b","amp;dn":"Uomini+di+Parola+-+Stand+Up+Guys+%282012%29+%5BXviD+-+Italian+English+","amp;tr":["udp%3A%2F%2Ftracker.openbittorrent.com%3A80","udp%3A%2F%2Fopen.demonii.com%3A1337","udp%3A%2F%2Ftracker.coppersurfer.tk%3A6969","udp%3A%2F%2Fexodus.desync.com%3A6969"],"infoHash":"1e44e8c8cf69cb6720c8dd41ee1c265c090f9c2b","infoHashBuffer":{"type":"Buffer","data":[30,68,232,200,207,105,203,103,32,200,221,65,238,28,38,92,9,15,156,43]},"announce":[],"urlList":[]}}